<svg xmlns="http://www.w3.org/2000/svg" viewBox="0 0 760 180" role="img" aria-labelledby="title desc">
<title id="title">eCommPilot</title><desc id="desc">eCommPilot cart and upward arrow logo</desc>
<defs><linearGradient id="brand" x1="0" y1="0" x2="1" y2="1"><stop offset="0" stop-color="#16D9E3"/><stop offset=".55" stop-color="#146CFF"/><stop offset="1" stop-color="#0B3BA7"/></linearGradient><linearGradient id="pilot" x1="0" y1="0" x2="1" y2="0"><stop offset="0" stop-color="#16D9E3"/><stop offset="1" stop-color="#146CFF"/></linearGradient></defs>
<g transform="translate(18 25)"><path d="M18 47h44" stroke="#5CEBFF" stroke-width="11" stroke-linecap="round"/><path d="M8 70h54" stroke="#16D9E3" stroke-width="11" stroke-linecap="round"/><path d="M22 93h37" stroke="#146CFF" stroke-width="11" stroke-linecap="round"/><path d="M58 42h97l-18 57H75z" fill="url(#brand)"/><path d="M84 52h50" stroke="#BDF8FF" stroke-width="7" stroke-linecap="round" opacity=".7"/><path d="M67 106h78" stroke="#071A3D" stroke-width="9" stroke-linecap="round"/><circle cx="84" cy="126" r="14" fill="#071A3D"/><circle cx="84" cy="126" r="7" fill="#16D9E3"/><circle cx="130" cy="126" r="14" fill="#071A3D"/><circle cx="130" cy="126" r="7" fill="#16D9E3"/><path d="M126 79c17-23 29-39 49-48" fill="none" stroke="url(#brand)" stroke-width="13" stroke-linecap="round"/><path d="M160 17l37 4-22 29-1-16-14-17z" fill="url(#brand)"/></g>
<text x="240" y="112" font-family="Inter,Arial,sans-serif" font-weight="800" font-size="76" fill="#071A3D">eComm</text><text x="489" y="112" font-family="Inter,Arial,sans-serif" font-weight="800" font-size="76" fill="url(#pilot)">Pilot</text>
</svg>